<svg xmlns="http://www.w3.org/2000/svg" viewBox="0 0 100 100" width="100" height="100">
  <!-- IIMB distinctive red curved wave pattern -->
  <g fill="#c41e3a">
    <!-- Top curve -->
    <path d="M15 25 Q35 10 50 25 Q65 40 85 25 L85 35 Q65 50 50 35 Q35 20 15 35 Z"/>
    <!-- Second curve -->
    <path d="M15 40 Q35 25 50 40 Q65 55 85 40 L85 50 Q65 65 50 50 Q35 35 15 50 Z"/>
    <!-- Third curve -->
    <path d="M15 55 Q35 40 50 55 Q65 70 85 55 L85 65 Q65 80 50 65 Q35 50 15 65 Z"/>
    <!-- Fourth curve -->
    <path d="M15 70 Q35 55 50 70 Q65 85 85 70 L85 80 Q65 95 50 80 Q35 65 15 80 Z"/>
  </g>
</svg>

